C:\Users\r0593348\3dpredictsim\Results\Batchsim_tmt_linear\Pog_s1_tmt_aCst_d00_k2000_ig24_act_GRF.mot
nRows=10
nColumns=19

name C:\Users\r0593348\3dpredictsim\Results\Batchsim_tmt_linear\Pog_s1_tmt_aCst_d00_k2000_ig24_act_GRF.mot
datacolumns 19
datarows 10
range 0.0000000000 0.1076149316
endheader
time 	ground_force_vx	ground_force_vy	ground_force_vz	ground_force_px	ground_force_py	ground_force_pz	1_ground_force_vx	1_ground_force_vy	1_ground_force_vz	1_ground_force_px	1_ground_force_py	1_ground_force_pz	ground_torque_x	ground_torque_y	ground_torque_z	1_ground_torque_x	1_ground_torque_y	1_ground_torque_z
        0.0000000000	      -41.4820941950	       29.5440630403	        8.5840627537	        0.1722737677	        0.0000000000	        0.0536147263	      108.0090596466	      438.7730076299	       -1.4371499314	       -0.3498172571	        0.0000000000	       -0.0342078274	        0.0000000000	        0.0000000000	        0.0000000000	        0.0000000000	        0.0000000000	        0.0000000000	
        0.0119572146	     -100.0981847118	       86.9885042452	       26.9503609966	        0.1831160476	        0.0000000000	        0.0513046651	       79.4793113567	      341.4700645006	       -6.6667713493	       -0.3428310104	        0.0000000000	       -0.0315155624	        0.0000000000	        0.0000000000	        0.0000000000	        0.0000000000	        0.0000000000	        0.0000000000	
        0.0239144292	     -103.5267740522	      215.7761018459	       44.3703977727	        0.1901654761	        0.0000000000	        0.0498512094	       45.7053935122	      234.6649257798	      -15.5067782371	       -0.3309121773	        0.0000000000	       -0.0265143987	        0.0000000000	        0.0000000000	        0.0000000000	        0.0000000000	        0.0000000000	        0.0000000000	
        0.0358716439	      -60.2356563020	      431.7866124607	        5.3225566460	        0.1949624216	        0.0000000000	        0.0490365090	       29.9279530016	      176.9458941438	      -18.3655527676	       -0.3225995970	        0.0000000000	       -0.0225197101	        0.0000000000	        0.0000000000	        0.0000000000	        0.0000000000	        0.0000000000	        0.0000000000	
        0.0478288585	      -82.0781619553	      676.9884197451	      -14.3369234682	        0.2045404177	        0.0000000000	        0.0508879821	       28.4901203614	      140.6979413063	      -14.7835554998	       -0.3222042793	        0.0000000000	       -0.0223625642	        0.0000000000	        0.0000000000	        0.0000000000	        0.0000000000	        0.0000000000	        0.0000000000	
        0.0597860731	     -119.7354179458	      855.1925129951	      -22.0274811726	        0.2129280717	        0.0000000000	        0.0527751559	       18.0744572935	       92.1489395900	      -13.9580658978	       -0.3219890914	        0.0000000000	       -0.0225323048	        0.0000000000	        0.0000000000	        0.0000000000	        0.0000000000	        0.0000000000	        0.0000000000	
        0.0717432877	     -133.6874321844	      907.2259834474	      -23.0954529196	        0.2182422842	        0.0000000000	        0.0538497154	        2.8457215542	       36.6776052418	       -8.6316774482	       -0.3223986813	        0.0000000000	       -0.0227540342	        0.0000000000	        0.0000000000	        0.0000000000	        0.0000000000	        0.0000000000	        0.0000000000	
        0.0837005023	     -127.1543843856	      894.1353866519	      -22.0557956858	        0.2221956451	        0.0000000000	        0.0544162342	        0.2710893503	       -0.2761239327	        0.0123329021	        0.0000000000	        0.0000000000	        0.0000000000	        0.0000000000	        0.0000000000	        0.0000000000	        0.0000000000	        0.0000000000	        0.0000000000	
        0.0956577170	     -113.0764508197	      852.4776831526	      -20.9488235257	        0.2263232419	        0.0000000000	        0.0545990622	        0.0022304536	       -0.0018069630	       -0.0001106932	        0.0000000000	        0.0000000000	        0.0000000000	        0.0000000000	        0.0000000000	        0.0000000000	        0.0000000000	        0.0000000000	        0.0000000000	
        0.1076149316	      -99.1543628559	      803.7915518228	      -19.8736621823	        0.2309746197	        0.0000000000	        0.0545026105	        0.0046581037	       -0.0032265406	       -0.0003135228	        0.0000000000	        0.0000000000	        0.0000000000	        0.0000000000	        0.0000000000	        0.0000000000	        0.0000000000	        0.0000000000	        0.0000000000	
